# Blender v2.81 (sub 16) OBJ File: 'game.blend'
# www.blender.org
o decreasePaddle_Cube.004
v 0.898953 0.301501 -0.149110
v 0.898953 -0.301501 -0.149110
v 0.898953 0.301501 0.149110
v 0.898953 -0.301501 0.149110
v -0.898953 0.301501 -0.149110
v -0.898953 -0.301501 -0.149110
v -0.898953 0.301501 0.149110
v -0.898953 -0.301501 0.149110
v 0.587756 0.000000 -0.149110
v -0.597756 0.000000 0.149110
v 0.587756 0.000000 0.149110
v -0.597756 0.000000 -0.149110
v 0.789163 -0.301501 -0.149110
v 0.789163 0.301501 0.149110
v 0.789163 -0.301501 0.149110
v 0.789163 0.301501 -0.149110
v 0.522204 0.000000 -0.149110
v 0.522204 0.000000 0.149110
v -0.800142 -0.301501 -0.149110
v -0.800142 0.301501 0.149110
v -0.535260 0.000000 0.149110
v -0.800142 -0.301501 0.149110
v -0.800142 0.301501 -0.149110
v -0.535260 0.000000 -0.149110
v -0.720854 0.150751 0.149110
v 0.720854 0.150751 -0.149110
v 0.720854 0.150751 0.149110
v -0.720854 0.150751 -0.149110
v 0.480684 0.073434 -0.149110
v 0.480684 0.073434 0.149110
v -0.492701 0.073434 -0.149110
v -0.492701 0.073434 0.149110
v 0.720854 -0.150751 -0.149110
v 0.720854 -0.150751 0.149110
v -0.720854 -0.150751 -0.149110
v -0.720854 -0.150751 0.149110
v 0.480684 -0.073434 0.149110
v 0.480684 -0.073434 -0.149110
v -0.492701 -0.073434 -0.149110
v -0.492701 -0.073434 0.149110
vt 0.999820 0.022647
vt 0.750180 0.000180
vt 0.999820 0.000180
vt 0.749820 0.245271
vt 0.687410 0.313646
vt 0.687410 0.289054
vt 0.750180 0.022647
vt 0.999820 0.100124
vt 0.750180 0.100124
vt 0.500180 0.682645
vt 0.749820 0.707609
vt 0.500180 0.707609
vt 0.500180 0.379193
vt 0.749820 0.456670
vt 0.500180 0.456670
vt 0.249820 0.616799
vt 0.187410 0.687671
vt 0.187410 0.660347
vt 0.062590 0.660347
vt 0.125000 0.727894
vt 0.062590 0.687671
vt 0.500180 0.530919
vt 0.749820 0.605168
vt 0.500180 0.605168
vt 0.750180 0.174373
vt 0.999820 0.248622
vt 0.750180 0.248622
vt 0.562590 0.289054
vt 0.625000 0.353870
vt 0.562590 0.313646
vt 0.625000 0.000180
vt 0.562590 0.067728
vt 0.562590 0.040403
vt 0.062590 0.439020
vt 0.125000 0.669788
vt 0.000180 0.076417
vt 0.249820 0.000180
vt 0.249820 0.076416
vt 0.687410 0.040403
vt 0.749820 0.111275
vt 0.687410 0.067728
vt 0.500180 0.354229
vt 0.749820 0.379193
vt 0.999820 0.348566
vt 0.750180 0.326099
vt 0.999820 0.326099
vt 0.187410 0.414428
vt 0.249820 0.482804
vt 0.187410 0.439020
vt 0.125000 0.374204
vt 0.062590 0.414428
vt 0.625000 0.058287
vt 0.250180 0.000180
vt 0.499820 0.076416
vt 0.250180 0.076417
vt 0.625000 0.298731
vt 0.125000 0.429343
vt 0.749820 0.530919
vt 0.999820 0.174373
vt 0.000180 0.482804
vt 0.000180 0.460336
vt 0.500180 0.111275
vt 0.500180 0.086311
vt 0.500180 0.245271
vt 0.500180 0.267738
vt 0.749820 0.682645
vt 0.000180 0.616799
vt 0.000180 0.641763
vt 0.499820 0.297743
vt 0.250180 0.297743
vt 0.499820 0.373845
vt 0.250180 0.373845
vt 0.000180 0.297743
vt 0.249820 0.373845
vt 0.000180 0.373845
vt 0.749820 0.267738
vt 0.249820 0.641763
vt 0.000180 0.000180
vt 0.749820 0.086311
vt 0.749820 0.354229
vt 0.750180 0.348566
vt 0.249820 0.460336
vt 0.499820 0.000180
vt 0.249820 0.297743
vn 0.0000 1.0000 0.0000
vn 0.0000 0.0000 1.0000
vn -0.6461 -0.7633 0.0000
vn 0.0000 -1.0000 0.0000
vn 0.6461 -0.7633 0.0000
vn 0.0000 0.0000 -1.0000
vn 0.7496 0.6619 0.0000
vn -0.7746 0.6325 0.0000
vn 0.5958 0.8031 0.0000
vn 0.5958 -0.8031 0.0000
vn 0.7496 -0.6619 0.0000
vn -0.7746 -0.6325 0.0000
vn -0.6461 0.7633 0.0000
vn 0.6461 0.7633 0.0000
vn -0.5945 -0.8041 0.0000
vn -0.5945 0.8041 0.0000
s off
f 5/1/1 20/2/1 23/3/1
f 20/4/2 25/5/2 32/6/2
f 7/7/3 28/8/3 25/9/3
f 2/10/4 15/11/4 13/12/4
f 1/13/5 27/14/5 26/15/5
f 16/16/6 26/17/6 29/18/6
f 38/19/6 9/20/6 33/21/6
f 9/22/7 34/23/7 33/24/7
f 10/25/8 35/26/8 36/27/8
f 40/28/2 10/29/2 36/30/2
f 11/31/2 37/32/2 34/33/2
f 39/34/6 17/35/6 38/19/6
f 31/36/9 20/37/9 32/38/9
f 27/39/2 14/40/2 30/41/2
f 16/42/1 3/43/1 1/13/1
f 19/44/4 8/45/4 6/46/4
f 28/47/6 23/48/6 31/49/6
f 12/50/6 39/34/6 35/51/6
f 18/52/2 40/28/2 37/32/2
f 22/53/10 39/54/10 40/55/10
f 18/52/2 32/6/2 21/56/2
f 12/50/6 31/49/6 24/57/6
f 11/31/2 30/41/2 18/52/2
f 31/49/6 17/35/6 24/57/6
f 29/18/6 9/20/6 17/35/6
f 26/15/11 11/58/11 9/22/11
f 25/9/12 12/59/12 10/25/12
f 32/6/2 10/29/2 21/56/2
f 35/51/6 19/60/6 6/61/6
f 34/33/2 15/62/2 4/63/2
f 22/64/2 36/30/2 8/65/2
f 36/27/13 6/46/13 8/45/13
f 33/24/14 4/66/14 2/10/14
f 13/67/6 33/21/6 2/68/6
f 38/69/4 40/55/4 39/54/4
f 37/70/15 13/71/15 15/72/15
f 32/38/1 29/73/1 31/36/1
f 29/73/16 14/74/16 16/75/16
f 5/1/1 7/7/1 20/2/1
f 20/4/2 7/76/2 25/5/2
f 7/7/3 5/1/3 28/8/3
f 2/10/4 4/66/4 15/11/4
f 1/13/5 3/43/5 27/14/5
f 16/16/6 1/77/6 26/17/6
f 38/19/6 17/35/6 9/20/6
f 9/22/7 11/58/7 34/23/7
f 10/25/8 12/59/8 35/26/8
f 40/28/2 21/56/2 10/29/2
f 11/31/2 18/52/2 37/32/2
f 39/34/6 24/57/6 17/35/6
f 31/36/9 23/78/9 20/37/9
f 27/39/2 3/79/2 14/40/2
f 16/42/1 14/80/1 3/43/1
f 19/44/4 22/81/4 8/45/4
f 28/47/6 5/82/6 23/48/6
f 12/50/6 24/57/6 39/34/6
f 18/52/2 21/56/2 40/28/2
f 22/53/10 19/83/10 39/54/10
f 18/52/2 30/41/2 32/6/2
f 12/50/6 28/47/6 31/49/6
f 11/31/2 27/39/2 30/41/2
f 31/49/6 29/18/6 17/35/6
f 29/18/6 26/17/6 9/20/6
f 26/15/11 27/14/11 11/58/11
f 25/9/12 28/8/12 12/59/12
f 32/6/2 25/5/2 10/29/2
f 35/51/6 39/34/6 19/60/6
f 34/33/2 37/32/2 15/62/2
f 22/64/2 40/28/2 36/30/2
f 36/27/13 35/26/13 6/46/13
f 33/24/14 34/23/14 4/66/14
f 13/67/6 38/19/6 33/21/6
f 38/69/4 37/70/4 40/55/4
f 37/70/15 38/69/15 13/71/15
f 32/38/1 30/84/1 29/73/1
f 29/73/16 30/84/16 14/74/16
